<?xml version="1.0" encoding="utf-8"?>
<!-- Generator: Adobe Illustrator 19.0.0, SVG Export Plug-In . SVG Version: 6.00 Build 0)  -->
<svg version="1.1" id="Layer_1" xmlns="http://www.w3.org/2000/svg" xmlns:xlink="http://www.w3.org/1999/xlink" x="0px" y="0px"
	 width="1095.7px" height="432px" viewBox="0 0 1095.7 432" style="enable-background:new 0 0 1095.7 432;" xml:space="preserve">
<style type="text/css">
	.st0{display:none;fill:#329EC4;}
	.st1{fill:#FFFFFF;}
</style>
<rect id="XMLID_1630_" class="st0" width="1095.7" height="432"/>
<g id="XMLID_1686_">
	<path id="XMLID_1687_" class="st1" d="M958.1,116.1v1.3h-2.5v6.4h-1.5v-6.4h-2.5v-1.3H958.1z M966.5,123.9l-0.3-4.5
		c0-0.6,0-1.3-0.1-2.2H966c-0.2,0.7-0.4,1.6-0.7,2.3l-1.4,4.3h-1.6l-1.4-4.4c-0.1-0.6-0.4-1.5-0.5-2.2h-0.1c0,0.7,0,1.4-0.1,2.2
		l-0.3,4.5h-1.5l0.6-7.7h2.3l1.3,3.8c0.2,0.6,0.3,1.2,0.5,2h0c0.2-0.7,0.4-1.4,0.5-1.9l1.3-3.8h2.2l0.6,7.7H966.5z"/>
</g>
<g id="XMLID_1410_">
	<g id="XMLID_1439_">
		<path id="XMLID_1440_" class="st1" d="M515.4,299.6v-0.1c0-4.3,2.4-7.2,5.6-7.2c3.3,0,5.4,2.9,5.4,7.1v0.6h-9.7
			c0.2,3.5,2.3,5.5,4.8,5.5c1.7,0,2.8-0.7,3.8-1.7l0.8,0.9c-1.2,1.2-2.6,2-4.7,2C518.1,306.7,515.4,304.1,515.4,299.6z M525,299
			c-0.1-2.9-1.5-5.4-4.1-5.4c-2.3,0-4.1,2.2-4.3,5.4H525z"/>
		<path id="XMLID_1443_" class="st1" d="M533.4,287.7h1.3v17.5h9.1v1.2h-10.4V287.7z"/>
		<path id="XMLID_1445_" class="st1" d="M550.6,287.7h11.2v1.2H552v7.4h8.9v1.2H552v7.6h10v1.2h-11.4V287.7z"/>
		<path id="XMLID_1447_" class="st1" d="M575.2,287.6h1.3l7.3,18.9h-1.4l-2-5.2h-9.2l-2,5.2h-1.4L575.2,287.6z M579.9,300l-4.1-10.8
			l-4.1,10.8H579.9z"/>
		<path id="XMLID_1450_" class="st1" d="M590.7,287.7h6.2c2.1,0,3.8,0.7,4.8,1.7c0.9,0.9,1.4,2.2,1.4,3.7v0.1c0,3-2,4.8-4.8,5.3
			l5.4,8h-1.6l-5.2-7.7H592v7.7h-1.3V287.7z M596.4,297.5c3.5,0,5.4-1.7,5.4-4.3v-0.1c0-2.7-1.9-4.2-5.1-4.2H592v8.6H596.4z"/>
		<path id="XMLID_1453_" class="st1" d="M610.7,287.7h1.3l10.8,16.1v-16.1h1.3v18.7h-1.1l-11-16.5v16.5h-1.3V287.7z"/>
		<path id="XMLID_1455_" class="st1" d="M632.4,287.7h1.3v18.7h-1.3V287.7z"/>
		<path id="XMLID_1457_" class="st1" d="M642.1,287.7h1.3l10.8,16.1v-16.1h1.3v18.7h-1.1l-11-16.5v16.5h-1.3V287.7z"/>
		<path id="XMLID_1459_" class="st1" d="M663,297.2V297c0-5.4,3.3-9.6,8.2-9.6c2.4,0,4,0.7,5.5,2l-0.8,1.1c-1.2-1.1-2.6-1.8-4.7-1.8
			c-3.9,0-6.8,3.5-6.8,8.3v0.1c0,5,2.7,8.4,7,8.4c1.8,0,3.5-0.7,4.5-1.5v-6h-5.2v-1.2h6.5v7.8c-1.4,1.1-3.5,2.1-5.9,2.1
			C666.1,306.7,663,302.7,663,297.2z"/>
		<path id="XMLID_1461_" class="st1" d="M694.7,287.7h11.1v1.2H696v7.7h8.7v1.2H696v8.5h-1.3V287.7z"/>
		<path id="XMLID_1463_" class="st1" d="M711.7,297.2V297c0-5.5,3.2-9.6,7.9-9.6s7.9,4.1,7.9,9.6v0.2c0,5.5-3.2,9.6-7.9,9.6
			C714.8,306.7,711.7,302.6,711.7,297.2z M726.1,297.2V297c0-4.8-2.8-8.4-6.5-8.4c-3.8,0-6.5,3.5-6.5,8.3v0.2c0,4.8,2.8,8.4,6.6,8.4
			C723.3,305.5,726.1,302,726.1,297.2z"/>
		<path id="XMLID_1466_" class="st1" d="M734.9,287.7h6.2c2.1,0,3.8,0.7,4.8,1.7c0.9,0.9,1.4,2.2,1.4,3.7v0.1c0,3-2,4.8-4.8,5.3
			l5.4,8h-1.6l-5.2-7.7h-4.9v7.7h-1.3V287.7z M740.7,297.5c3.5,0,5.4-1.7,5.4-4.3v-0.1c0-2.7-1.9-4.2-5.1-4.2h-4.8v8.6H740.7z"/>
		<path id="XMLID_1471_" class="st1" d="M764.7,287.7h1.3v17.5h9.1v1.2h-10.4V287.7z"/>
		<path id="XMLID_1473_" class="st1" d="M782.2,287.7h1.3v18.7h-1.3V287.7z"/>
		<path id="XMLID_1475_" class="st1" d="M791.9,287.7H803v1.2h-9.7v7.7h8.7v1.2h-8.7v8.5h-1.3V287.7z"/>
		<path id="XMLID_1477_" class="st1" d="M810,287.7h11.2v1.2h-9.9v7.4h8.9v1.2h-8.9v7.6h10v1.2H810V287.7z"/>
	</g>
	<g id="XMLID_1422_">
		<path id="XMLID_1423_" class="st1" d="M389.9,207.7v-0.4c0-27.7,22.1-51.8,50.4-51.8c17.1,0,28.3,7.4,37.2,15.7
			c0.8,0.8,1.4,2.1,1.4,3.5c0,2.7-2.1,4.8-4.8,4.8c-1.2,0-2.5-0.4-3.3-1.2c-7.9-7.6-17.3-14-30.6-14c-22.5,0-39.9,18.8-39.9,42.5
			v0.4c0,23.8,18,42.8,40.7,42.8c12.8,0,23.1-6.2,31-14.2c0.8-0.8,1.7-1.6,3.1-1.6c2.3,0,4.7,2.3,4.7,4.7c0,1-0.4,2.1-1.2,2.9
			c-9.9,10.1-21.3,17.1-38.2,17.1C411.8,259.1,389.9,235.4,389.9,207.7z"/>
		<path id="XMLID_1425_" class="st1" d="M546.2,259.1c-26,0-48.5-20.7-48.5-51.6v-0.4c0-28.7,20.2-51.6,46.9-51.6
			c27.7,0,45.4,22.9,45.4,51.2c0,2.3-2.3,4.5-4.7,4.5h-77.5c1.7,24.6,19.4,39,38.8,39c14.2,0,24-5.8,32-13.6
			c0.8-0.8,1.7-1.4,3.1-1.4c2.5,0,4.7,1.9,4.7,4.5c0,1-0.4,2.1-1.5,3.3C575,252.7,564,259.1,546.2,259.1z M579.7,202.7
			c-1.4-20-12.8-38.4-35.5-38.4c-19.6,0-34.7,16.5-36.4,38.4H579.7z"/>
		<path id="XMLID_1428_" class="st1" d="M617.7,162c0-2.7,1.9-4.8,4.7-4.8c2.7,0,4.8,1.9,4.8,4.8v24c8.5-19.2,25.8-29.7,39.7-29.7
			c2.9,0,5,2.3,5,5.2c0,2.7-1.9,5-5,5.2c-20.9,1.9-39.7,17.6-39.7,49.4v36.4c0,2.7-1.9,4.8-4.7,4.8s-4.8-1.9-4.8-4.8V162z"/>
		<path id="XMLID_1430_" class="st1" d="M700.4,231.4v-64.7h-10.7c-2.3,0-4.5-2.1-4.5-4.5c0-2.3,2.1-4.3,4.5-4.3h10.7v-27.5
			c0-2.7,1.9-4.8,4.7-4.8s4.8,2.1,4.8,4.8v27.5h31c2.3,0,4.5,2.1,4.5,4.5s-2.1,4.3-4.5,4.3h-31v63.8c0,14.1,8.3,19.2,19.8,19.2
			c6.8,0,9.9-1.9,11.2-1.9c2.1,0,4.3,1.9,4.3,4.3c0,1.9-1.2,3.3-3.1,4.1c-3.9,1.4-8.3,2.5-14,2.5
			C712.9,258.5,700.4,250.2,700.4,231.4z"/>
		<path id="XMLID_1432_" class="st1" d="M811.5,259.1c-26,0-48.5-20.7-48.5-51.6v-0.4c0-28.7,20.2-51.6,46.9-51.6
			c27.7,0,45.4,22.9,45.4,51.2c0,2.3-2.3,4.5-4.7,4.5h-77.5c1.7,24.6,19.4,39,38.8,39c14.2,0,24-5.8,32-13.6
			c0.8-0.8,1.7-1.4,3.1-1.4c2.5,0,4.7,1.9,4.7,4.5c0,1-0.4,2.1-1.5,3.3C840.4,252.7,829.3,259.1,811.5,259.1z M845,202.7
			c-1.4-20-12.8-38.4-35.5-38.4c-19.6,0-34.7,16.5-36.4,38.4H845z"/>
		<path id="XMLID_1435_" class="st1" d="M884.4,119.3c0-2.7,1.9-4.8,4.7-4.8s4.8,2.1,4.8,4.8v133.4c0,2.9-1.9,4.8-4.7,4.8
			c-2.7,0-4.8-1.9-4.8-4.8V119.3z"/>
		<path id="XMLID_1437_" class="st1" d="M932.7,119.3c0-2.7,1.9-4.8,4.7-4.8s4.8,2.1,4.8,4.8v133.4c0,2.9-1.9,4.8-4.7,4.8
			c-2.7,0-4.8-1.9-4.8-4.8V119.3z"/>
	</g>
</g>
<g id="XMLID_15_">
	<path id="XMLID_47_" class="st1" d="M297.6,197.2c6.6-6.6,13.4-12.5,20.2-17.6c-15.4-11.1-30.4-17.8-41.1-17.8c-0.5,0-1,0-1.5,0.1
		c-2.4,1.9-4.7,3.9-6.9,6.1c-2.2,2.2-4.2,4.6-6.1,7c-0.7,10.5,5.9,26.1,17.8,42.5C285.1,210.7,291.1,203.8,297.6,197.2z"/>
	<path id="XMLID_46_" class="st1" d="M298.8,198.4c-6.7,6.7-12.7,13.7-17.8,20.5c5.1,6.8,11,13.8,17.8,20.5
		c6.6,6.6,13.6,12.6,20.5,17.7c6-4.4,12.1-9.5,17.9-15.2v-46.1c-5.8-5.6-11.9-10.7-17.9-15.2C312.4,185.8,305.4,191.8,298.8,198.4z"
		/>
	<path id="XMLID_24_" class="st1" d="M268.4,269.9c2.2,2.2,4.5,4.2,6.9,6.1c0.5,0,1,0.1,1.5,0.1c10.7,0,25.7-6.7,41.1-17.8
		c-6.8-5.1-13.6-11-20.2-17.6c-6.6-6.6-12.5-13.4-17.6-20.3c-11.9,16.4-18.4,32-17.8,42.5C264.1,265.3,266.1,267.6,268.4,269.9z"/>
	<path id="XMLID_23_" class="st1" d="M260.6,260.6c0.2-5.3,1.8-11.7,4.9-18.8c3.2-7.3,7.8-15.1,13.5-22.9
		c-5.7-7.8-10.3-15.5-13.5-22.9c-3.1-7.2-4.8-13.5-4.9-18.8C242.9,202.1,242.9,235.7,260.6,260.6z"/>
	<path id="XMLID_22_" class="st1" d="M277.6,277.6c0.7,0.5,1.5,1,2.2,1.5c0,0,0,0,0,0c-3.2,1.1-6.4,2.3-9.5,3.5l9.6-3.5
		c17.6-6,36.5-9.3,56.1-9.4c-5.4-2.8-11-6.3-16.6-10.5C303.9,270.5,288.8,277.3,277.6,277.6z"/>
	<path id="XMLID_21_" class="st1" d="M337.2,268.4L337.2,268.4l0-24.2c-5.4,5.1-11,9.8-16.4,13.9
		C326.4,262.2,331.9,265.7,337.2,268.4z"/>
	<path id="XMLID_20_" class="st1" d="M337.2,269.7v-1.3c0,0,0,0,0,0l-1.3,1.3C336.3,269.7,336.8,269.7,337.2,269.7z"/>
	<path id="XMLID_19_" class="st1" d="M337.2,193.6v-24.2v0c-5.3,2.8-10.9,6.2-16.5,10.3C326.3,183.8,331.8,188.4,337.2,193.6z"/>
	<path id="XMLID_18_" class="st1" d="M277.6,160.2c11.2,0.3,26.3,7.1,41.7,18.4c6.1-4.5,12.1-8.2,17.9-11.1v-18.3v0
		c-5.8-1.5-11.8-2.2-17.9-2.2C304.1,146.9,289.7,151.6,277.6,160.2z"/>
	<path id="XMLID_17_" class="st1" d="M214.5,168.1c-21.8-20.3-48.5-35.3-78.2-42.9v23.6v32.7l-9.3-6.8l-9.3,6.8v-32.7v-27.3
		c-8.4-1.2-17-1.8-25.8-1.8v150c47.4,0,90.5,18.4,122.7,48.4c16.1-15,35-27.1,55.7-35.4c-2.7-2.1-5.3-4.4-7.8-6.9
		c-31.4-31.4-31.4-82.4,0-113.8c15.2-15.2,35.4-23.6,56.9-23.6c6.1,0,12.1,0.7,17.9,2v-20.7C289.8,119.7,246.7,138.1,214.5,168.1z"
		/>
</g>
</svg>
